<svg xmlns="http://www.w3.org/2000/svg" viewBox="0 0 860 500" width="860" height="500" role="img" aria-label="The two engines disagree about where to build. Same network, same fleet, same candidates — ranked by each engine. Crossing lines are changed recommendations." font-family="ui-sans-serif, -apple-system, Segoe UI, Roboto, sans-serif">
<rect x="0.0" y="0.0" width="860.0" height="500.0" fill="#1a1a19" rx="0"/>
<text x="28.0" y="38.0" font-size="17" fill="#ffffff" text-anchor="start" font-weight="700" opacity="1.0">The two engines disagree about where to build</text>
<text x="28.0" y="60.0" font-size="12.5" fill="#c3c2b7" text-anchor="start" font-weight="400" opacity="1.0">Same network, same fleet, same candidates — ranked by each engine. Crossing lines are changed recommendations.</text>
<text x="300.0" y="92.0" font-size="12.5" fill="#ffffff" text-anchor="end" font-weight="600" opacity="1.0">static tally</text>
<text x="560.0" y="92.0" font-size="12.5" fill="#ffffff" text-anchor="start" font-weight="600" opacity="1.0">event-driven clock</text>
<path d="M 300 298.0 C 390 298.0, 470 118.0, 560 118.0" fill="none" stroke="#3987e5" stroke-width="2.5" stroke-linejoin="round" stroke-linecap="round" opacity="1.0"/>
<text x="288.0" y="302.0" font-size="12" fill="#ffffff" text-anchor="end" font-weight="600" opacity="1.0">7. Site 4-4</text>
<text x="572.0" y="122.0" font-size="12" fill="#ffffff" text-anchor="start" font-weight="600" opacity="1.0">1. Site 4-4</text>
<circle cx="300.0" cy="298.0" r="4.5" fill="#3987e5" stroke="#1a1a19" stroke-width="2"/>
<circle cx="560.0" cy="118.0" r="4.5" fill="#3987e5" stroke="#1a1a19" stroke-width="2"/>
<path d="M 300 118.0 C 390 118.0, 470 148.0, 560 148.0" fill="none" stroke="#383835" stroke-width="1.5" stroke-linejoin="round" stroke-linecap="round" opacity="0.75"/>
<text x="288.0" y="122.0" font-size="12" fill="#898781" text-anchor="end" font-weight="400" opacity="1.0">1. Site 2-1</text>
<text x="572.0" y="152.0" font-size="12" fill="#898781" text-anchor="start" font-weight="400" opacity="1.0">2. Site 2-1</text>
<circle cx="300.0" cy="118.0" r="4.5" fill="#383835" stroke="#1a1a19" stroke-width="2"/>
<circle cx="560.0" cy="148.0" r="4.5" fill="#383835" stroke="#1a1a19" stroke-width="2"/>
<path d="M 300 208.0 C 390 208.0, 470 178.0, 560 178.0" fill="none" stroke="#383835" stroke-width="1.5" stroke-linejoin="round" stroke-linecap="round" opacity="0.75"/>
<text x="288.0" y="212.0" font-size="12" fill="#898781" text-anchor="end" font-weight="400" opacity="1.0">4. Site 0-0</text>
<text x="572.0" y="182.0" font-size="12" fill="#898781" text-anchor="start" font-weight="400" opacity="1.0">3. Site 0-0</text>
<circle cx="300.0" cy="208.0" r="4.5" fill="#383835" stroke="#1a1a19" stroke-width="2"/>
<circle cx="560.0" cy="178.0" r="4.5" fill="#383835" stroke="#1a1a19" stroke-width="2"/>
<path d="M 300 418.0 C 390 418.0, 470 208.0, 560 208.0" fill="none" stroke="#3987e5" stroke-width="2.5" stroke-linejoin="round" stroke-linecap="round" opacity="1.0"/>
<text x="288.0" y="422.0" font-size="12" fill="#ffffff" text-anchor="end" font-weight="600" opacity="1.0">11. Site 0-2</text>
<text x="572.0" y="212.0" font-size="12" fill="#ffffff" text-anchor="start" font-weight="600" opacity="1.0">4. Site 0-2</text>
<circle cx="300.0" cy="418.0" r="4.5" fill="#3987e5" stroke="#1a1a19" stroke-width="2"/>
<circle cx="560.0" cy="208.0" r="4.5" fill="#3987e5" stroke="#1a1a19" stroke-width="2"/>
<path d="M 300 238.0 C 390 238.0, 470 238.0, 560 238.0" fill="none" stroke="#383835" stroke-width="1.5" stroke-linejoin="round" stroke-linecap="round" opacity="0.75"/>
<text x="288.0" y="242.0" font-size="12" fill="#898781" text-anchor="end" font-weight="400" opacity="1.0">5. Site 0-5</text>
<text x="572.0" y="242.0" font-size="12" fill="#898781" text-anchor="start" font-weight="400" opacity="1.0">5. Site 0-5</text>
<circle cx="300.0" cy="238.0" r="4.5" fill="#383835" stroke="#1a1a19" stroke-width="2"/>
<circle cx="560.0" cy="238.0" r="4.5" fill="#383835" stroke="#1a1a19" stroke-width="2"/>
<path d="M 300 148.0 C 390 148.0, 470 268.0, 560 268.0" fill="none" stroke="#383835" stroke-width="1.5" stroke-linejoin="round" stroke-linecap="round" opacity="0.75"/>
<text x="288.0" y="152.0" font-size="12" fill="#898781" text-anchor="end" font-weight="400" opacity="1.0">2. Site 1-0</text>
<text x="572.0" y="272.0" font-size="12" fill="#898781" text-anchor="start" font-weight="400" opacity="1.0">6. Site 1-0</text>
<circle cx="300.0" cy="148.0" r="4.5" fill="#383835" stroke="#1a1a19" stroke-width="2"/>
<circle cx="560.0" cy="268.0" r="4.5" fill="#383835" stroke="#1a1a19" stroke-width="2"/>
<path d="M 300 178.0 C 390 178.0, 470 298.0, 560 298.0" fill="none" stroke="#383835" stroke-width="1.5" stroke-linejoin="round" stroke-linecap="round" opacity="0.75"/>
<text x="288.0" y="182.0" font-size="12" fill="#898781" text-anchor="end" font-weight="400" opacity="1.0">3. Site 2-0</text>
<text x="572.0" y="302.0" font-size="12" fill="#898781" text-anchor="start" font-weight="400" opacity="1.0">7. Site 2-0</text>
<circle cx="300.0" cy="178.0" r="4.5" fill="#383835" stroke="#1a1a19" stroke-width="2"/>
<circle cx="560.0" cy="298.0" r="4.5" fill="#383835" stroke="#1a1a19" stroke-width="2"/>
<path d="M 300 268.0 C 390 268.0, 470 328.0, 560 328.0" fill="none" stroke="#383835" stroke-width="1.5" stroke-linejoin="round" stroke-linecap="round" opacity="0.75"/>
<text x="288.0" y="272.0" font-size="12" fill="#898781" text-anchor="end" font-weight="400" opacity="1.0">6. Site 5-0</text>
<text x="572.0" y="332.0" font-size="12" fill="#898781" text-anchor="start" font-weight="400" opacity="1.0">8. Site 5-0</text>
<circle cx="300.0" cy="268.0" r="4.5" fill="#383835" stroke="#1a1a19" stroke-width="2"/>
<circle cx="560.0" cy="328.0" r="4.5" fill="#383835" stroke="#1a1a19" stroke-width="2"/>
<path d="M 300 358.0 C 390 358.0, 470 358.0, 560 358.0" fill="none" stroke="#383835" stroke-width="1.5" stroke-linejoin="round" stroke-linecap="round" opacity="0.75"/>
<text x="288.0" y="362.0" font-size="12" fill="#898781" text-anchor="end" font-weight="400" opacity="1.0">9. Site 5-1</text>
<text x="572.0" y="362.0" font-size="12" fill="#898781" text-anchor="start" font-weight="400" opacity="1.0">9. Site 5-1</text>
<circle cx="300.0" cy="358.0" r="4.5" fill="#383835" stroke="#1a1a19" stroke-width="2"/>
<circle cx="560.0" cy="358.0" r="4.5" fill="#383835" stroke="#1a1a19" stroke-width="2"/>
<path d="M 300 388.0 C 390 388.0, 470 388.0, 560 388.0" fill="none" stroke="#383835" stroke-width="1.5" stroke-linejoin="round" stroke-linecap="round" opacity="0.75"/>
<text x="288.0" y="392.0" font-size="12" fill="#898781" text-anchor="end" font-weight="400" opacity="1.0">10. Site 5-2</text>
<text x="572.0" y="392.0" font-size="12" fill="#898781" text-anchor="start" font-weight="400" opacity="1.0">10. Site 5-2</text>
<circle cx="300.0" cy="388.0" r="4.5" fill="#383835" stroke="#1a1a19" stroke-width="2"/>
<circle cx="560.0" cy="388.0" r="4.5" fill="#383835" stroke="#1a1a19" stroke-width="2"/>
<path d="M 300 328.0 C 390 328.0, 470 418.0, 560 418.0" fill="none" stroke="#383835" stroke-width="1.5" stroke-linejoin="round" stroke-linecap="round" opacity="0.75"/>
<text x="288.0" y="332.0" font-size="12" fill="#898781" text-anchor="end" font-weight="400" opacity="1.0">8. Site 5-3</text>
<text x="572.0" y="422.0" font-size="12" fill="#898781" text-anchor="start" font-weight="400" opacity="1.0">11. Site 5-3</text>
<circle cx="300.0" cy="328.0" r="4.5" fill="#383835" stroke="#1a1a19" stroke-width="2"/>
<circle cx="560.0" cy="418.0" r="4.5" fill="#383835" stroke="#1a1a19" stroke-width="2"/>
<text x="28.0" y="466.0" font-size="12" fill="#ffffff" text-anchor="start" font-weight="400" opacity="1.0">The static model would build at Site 2-1. On the clock, Site 4-4 is better.</text>
<text x="28.0" y="484.0" font-size="11" fill="#898781" text-anchor="start" font-weight="400" opacity="1.0">evnet site --engine static  vs  --engine events</text>
</svg>
